<?xml version="1.0" encoding="UTF-8" standalone="no"?>
<!-- Created with Inkscape (http://www.inkscape.org/) -->

<svg
   width="45mm"
   height="16mm"
   viewBox="0 0 45 16"
   version="1.1"
   id="svg32677"
   inkscape:version="1.1.2 (0a00cf5339, 2022-02-04)"
   sodipodi:docname="allButtons.svg"
   inkscape:export-filename="/home/cubaix/GITREPO/karaok-AI/src/com/cubaix/kaiDJ/img2/searchKaiBut.png"
   inkscape:export-xdpi="25.4"
   inkscape:export-ydpi="25.4"
   xmlns:inkscape="http://www.inkscape.org/namespaces/inkscape"
   xmlns:sodipodi="http://sodipodi.sourceforge.net/DTD/sodipodi-0.dtd"
   xmlns="http://www.w3.org/2000/svg"
   xmlns:svg="http://www.w3.org/2000/svg">
  <sodipodi:namedview
     id="namedview32679"
     pagecolor="#ffffff"
     bordercolor="#666666"
     borderopacity="1.0"
     inkscape:pageshadow="2"
     inkscape:pageopacity="0.0"
     inkscape:pagecheckerboard="0"
     inkscape:document-units="mm"
     showgrid="false"
     inkscape:zoom="4.8604938"
     inkscape:cx="85.485141"
     inkscape:cy="43.205487"
     inkscape:window-width="1920"
     inkscape:window-height="1034"
     inkscape:window-x="0"
     inkscape:window-y="25"
     inkscape:window-maximized="1"
     inkscape:current-layer="g868" />
  <defs
     id="defs32674" />
  <g
     inkscape:label="New"
     inkscape:groupmode="layer"
     id="layer1"
     style="display:none">
    <path
       d="m 6.6578066,6.2455443 c 0.109984,-0.329999 0.576002,-0.329999 0.686001,0 L 7.9888086,8.18255 a 2.8900082,2.8900082 0 0 0 1.829006,1.828005 l 1.9360044,0.645001 c 0.329991,0.11 0.329991,0.576002 0,0.686003 l -1.9370064,0.645002 a 2.8900082,2.8900082 0 0 0 -1.828004,1.829005 l -0.645001,1.936005 a 0.36100101,0.36100101 0 0 1 -0.686001,0 l -0.645001,-1.937005 a 2.8900082,2.8900082 0 0 0 -1.828007,-1.828005 l -1.937005,-0.645002 a 0.36100101,0.36100101 0 0 1 0,-0.686003 l 1.937005,-0.645001 A 2.8900082,2.8900082 0 0 0 6.0128056,8.18255 Z M 2.7947946,1.1465299 a 0.2170006,0.2170006 0 0 1 0.412001,0 l 0.387001,1.1620031 c 0.173001,0.5180016 0.579002,0.9240027 1.097003,1.0970031 l 1.162003,0.3870013 a 0.2170006,0.2170006 0 0 1 0,0.412001 l -1.162003,0.387001 a 1.7340049,1.7340049 0 0 0 -1.097003,1.097003 L 3.2067956,6.850546 a 0.2170006,0.2170006 0 0 1 -0.412001,0 L 2.4077936,5.6885424 A 1.7340049,1.7340049 0 0 0 1.3107905,4.5915394 L 0.1487873,4.2045384 a 0.2170006,0.2170006 0 0 1 0,-0.412001 L 1.3107905,3.4055361 A 1.7340049,1.7340049 0 0 0 2.4077936,2.308533 Z m 7.06902,-1.0490033 a 0.1450004,0.1450004 0 0 1 0.2740174,0 l 0.257991,0.7740022 c 0.115012,0.3460016 0.386001,0.617002 0.732002,0.732002 l 0.774004,0.2580027 a 0.1450004,0.1450004 0 0 1 0,0.2740014 L 11.127825,2.3935337 A 1.1560033,1.1560033 0 0 0 10.395823,3.1255358 L 10.137832,3.899538 a 0.1450004,0.1450004 0 0 1 -0.2740174,0 L 9.6058236,3.1255358 A 1.1560033,1.1560033 0 0 0 8.8738216,2.3935337 L 8.1008226,2.1355349 a 0.1450004,0.1450004 0 0 1 0,-0.2740014 l 0.774001,-0.2580027 c 0.346016,-0.115 0.617002,-0.3860008 0.732002,-0.732002 l 0.257008,-0.7730022 z"
       id="path2"
       style="fill:#792c7d;fill-opacity:1;stroke-width:1" />
    <text
       xml:space="preserve"
       style="font-style:normal;font-weight:normal;font-size:11.2889px;line-height:1;font-family:sans-serif;fill:#000000;fill-opacity:1;stroke:none;stroke-width:0.264583"
       x="19.5669"
       y="11.957729"
       id="text35362"><tspan
         sodipodi:role="line"
         style="font-style:normal;font-variant:normal;font-weight:normal;font-stretch:normal;font-size:11.2889px;font-family:Roboto;-inkscape-font-specification:Roboto;fill:#e2b8e4;fill-opacity:1;stroke-width:0.264583"
         x="19.5669"
         y="11.957729"
         id="tspan35364">New</tspan></text>
  </g>
  <g
     inkscape:label="Open"
     inkscape:groupmode="layer"
     id="g54833"
     style="display:none">
    <text
       xml:space="preserve"
       style="font-style:normal;font-weight:normal;font-size:11.2889px;line-height:1;font-family:sans-serif;fill:#000000;fill-opacity:1;stroke:none;stroke-width:0.264583"
       x="19.440121"
       y="11.957729"
       id="text54831"><tspan
         sodipodi:role="line"
         style="font-style:normal;font-variant:normal;font-weight:normal;font-stretch:normal;font-size:11.2889px;font-family:Roboto;-inkscape-font-specification:Roboto;fill:#e2b8e4;fill-opacity:1;stroke-width:0.264583"
         x="19.440121"
         y="11.957729"
         id="tspan54829">Open</tspan></text>
    <path
       d="M 0.93327149,2.6153846 A 1.6153846,1.6153846 0 0 1 2.5486562,0.99999986 H 5.525274 c 1.0316888,0 1.895382,0.60307444 2.4887685,1.27507454 0.4415381,0.4996932 0.9746161,0.8787686 1.5346144,0.8787686 h 4.8461541 a 1.6153846,1.6153846 0 0 1 1.615385,1.6153847 v 0.6892339 c 0.613844,0.2853655 1.012306,0.9433848 0.921845,1.6649194 l -0.68923,5.518154 a 2.6923076,2.6923076 0 0 1 -2.673998,2.358464 H 3.3735799 A 2.6923076,2.6923076 0 0 1 0.70173429,12.641535 L 0.01250555,7.123381 A 1.6153846,1.6153846 0 0 1 0.93327149,5.4584616 Z M 2.0101969,5.3076904 H 14.933274 V 4.7692277 A 0.5384615,0.5384615 0 0 0 14.394811,4.2307693 H 9.5486569 c -1.0381525,0 -1.8415399,-0.6773847 -2.3412296,-1.242773 C 6.7206569,2.4366142 6.1240417,2.0769219 5.525274,2.0769219 H 2.5486562 A 0.5384615,0.5384615 0 0 0 2.0101969,2.6153846 Z M 1.6149752,6.3846124 A 0.5384615,0.5384615 0 0 0 1.0808183,6.9898437 l 0.6892332,5.5181543 a 1.6153846,1.6153846 0 0 0 1.6035363,1.415079 H 13.569895 a 1.6153846,1.6153846 0 0 0 1.603541,-1.415079 L 15.862665,6.9898437 A 0.5384615,0.5384615 0 0 0 15.328512,6.3846124 Z"
       id="path2-6"
       style="fill:#792c7d;fill-opacity:1;stroke-width:1.07692" />
  </g>
  <g
     inkscape:label="Save"
     inkscape:groupmode="layer"
     id="g56915"
     style="display:none">
    <text
       xml:space="preserve"
       style="font-style:normal;font-weight:normal;font-size:11.2889px;line-height:1;font-family:sans-serif;fill:#000000;fill-opacity:1;stroke:none;stroke-width:0.264583"
       x="19.682657"
       y="11.957729"
       id="text56911"><tspan
         sodipodi:role="line"
         style="font-style:normal;font-variant:normal;font-weight:normal;font-stretch:normal;font-size:11.2889px;font-family:Roboto;-inkscape-font-specification:Roboto;fill:#e2b8e4;fill-opacity:1;stroke-width:0.264583"
         x="19.682657"
         y="11.957729"
         id="tspan56909">Save</tspan></text>
    <path
       d="M 1.750014,1.874999 A 0.87500006,0.87500006 0 0 0 0.875012,2.750001 v 10.500001 a 0.87500006,0.87500006 0 0 0 0.875002,0.874999 h 10.500001 a 0.87500006,0.87500006 0 0 0 0.874999,-0.874999 V 2.750001 A 0.87500006,0.87500006 0 0 0 12.250015,1.874999 h -3.9375 A 0.87500006,0.87500006 0 0 0 7.437513,2.750001 V 6.687502 H 9.187514 A 0.43750001,0.43750001 0 0 1 9.497256,7.434751 L 7.309757,9.62225 a 0.43750001,0.43750001 0 0 1 -0.6195,0 L 4.502758,7.434751 A 0.43750001,0.43750001 0 0 1 4.812499,6.687502 H 6.562501 V 2.750001 A 1.7500001,1.7500001 0 0 1 8.312502,1 h 3.9375 A 1.7500001,1.7500001 0 0 1 14,2.750001 V 13.250002 A 1.7500001,1.7500001 0 0 1 12.250002,15 H 1.750001 A 1.7500001,1.7500001 0 0 1 0,13.250002 V 2.750001 A 1.7500001,1.7500001 0 0 1 1.750001,1 H 3.9375 a 0.43750001,0.43750001 0 0 1 0,0.874999 z"
       id="path2-2"
       style="fill:#792c7d;fill-opacity:1;stroke-width:0.874999" />
  </g>
  <g
     inkscape:label="Categories"
     inkscape:groupmode="layer"
     id="g60083"
     style="display:none">
    <text
       xml:space="preserve"
       style="font-style:normal;font-weight:normal;font-size:11.2889px;line-height:1;font-family:sans-serif;fill:#000000;fill-opacity:1;stroke:none;stroke-width:0.264583"
       x="19.682657"
       y="11.957729"
       id="text60079"><tspan
         sodipodi:role="line"
         style="font-style:normal;font-variant:normal;font-weight:normal;font-stretch:normal;font-size:11.2889px;font-family:Roboto;-inkscape-font-specification:Roboto;fill:#e2b8e4;fill-opacity:1;stroke-width:0.264583"
         x="19.682657"
         y="11.957729"
         id="tspan60077">Cat.</tspan></text>
    <g
       id="g60116"
       style="fill:#792c7d;fill-opacity:1"
       transform="matrix(3.3071404,0,0,3.3071404,-91.243739,-50.688405)">
      <path
         d="m 27.58992,16.687668 a 0.52916666,0.52916666 0 0 1 0.529166,-0.529166 h 1.5875 a 0.52916666,0.52916666 0 0 1 0.529167,0.529166 v 3.042709 a 0.13229166,0.13229166 0 0 1 -0.205581,0.110066 l -1.117336,-0.744802 -1.117335,0.744802 A 0.13229166,0.13229166 0 0 1 27.58992,19.730377 Z m 0.529166,-0.264583 a 0.26458333,0.26458333 0 0 0 -0.264583,0.264583 v 2.795588 l 0.985044,-0.656696 a 0.13229166,0.13229166 0 0 1 0.146579,0 l 0.985044,0.656696 v -2.795588 a 0.26458333,0.26458333 0 0 0 -0.264584,-0.264583 z"
         id="path2-8"
         style="fill:#792c7d;fill-opacity:1;stroke-width:0.264583" />
      <path
         d="m 28.189995,15.893918 h 2.045758 a 0.26458333,0.26458333 0 0 1 0.264583,0.264584 v 3.113616 l 0.059,0.03916 A 0.13229166,0.13229166 0 0 0 30.76492,19.20121 v -3.042708 a 0.52916666,0.52916666 0 0 0 -0.529167,-0.529167 h -1.5875 a 0.52916666,0.52916666 0 0 0 -0.458258,0.264583 z"
         id="path4"
         style="fill:#792c7d;fill-opacity:1;stroke-width:0.264583" />
    </g>
  </g>
  <g
     inkscape:label="EraseDB"
     inkscape:groupmode="layer"
     id="g63376"
     style="display:none">
    <text
       xml:space="preserve"
       style="font-style:normal;font-weight:normal;font-size:11.2889px;line-height:1;font-family:sans-serif;fill:#000000;fill-opacity:1;stroke:none;stroke-width:0.264583"
       x="19.682657"
       y="11.957729"
       id="text63368"><tspan
         sodipodi:role="line"
         style="font-style:normal;font-variant:normal;font-weight:normal;font-stretch:normal;font-size:11.2889px;font-family:Roboto;-inkscape-font-specification:Roboto;fill:#e2b8e4;fill-opacity:1;stroke-width:0.264583"
         x="19.682657"
         y="11.957729"
         id="tspan63366">New</tspan></text>
    <path
       d="m 4.8120011,1.874999 h 2.625001 A 0.43750001,0.43750001 0 0 1 7.8744991,2.3125 V 3.187499 H 4.3745001 V 2.3125 a 0.43750001,0.43750001 0 0 1 0.437501,-0.437501 z m 3.937501,1.3125 V 2.3125 a 1.3125001,1.3125001 0 0 0 -1.3125,-1.31250002 H 4.8120011 A 1.3125001,1.3125001 0 0 0 3.4995011,2.3125 v 0.874999 h -2.18225 a 0.50750003,0.50750003 0 0 0 -0.0086,0 H 0.43715114 a 0.43750114,0.43750114 0 0 0 0,0.875002 h 0.470599 l 0.74637296,9.3275 A 1.7500001,1.7500001 0 0 0 3.3988761,15 h 5.451249 a 1.7500001,1.7500001 0 0 0 1.7447499,-1.609999 l 0.746373,-9.3275 h 0.470751 a 0.43750114,0.43750114 0 0 0 0,-0.875002 h -0.870624 a 0.51625002,0.51625002 0 0 0 -0.0086,0 z M 10.462751,4.062501 9.7225001,13.32 a 0.87500006,0.87500006 0 0 1 -0.872374,0.805001 H 3.3988771 A 0.87500006,0.87500006 0 0 1 2.5265001,13.32 L 1.7862481,4.062501 Z M 3.9116241,4.9375 a 0.43750001,0.43750001 0 0 1 0.462,0.41125 l 0.437501,7.437499 a 0.43750001,0.43750001 0 0 1 -0.873249,0.05248 l -0.438375,-7.4375 a 0.43750001,0.43750001 0 0 1 0.41125,-0.463749 z m 4.425752,0 a 0.43750001,0.43750001 0 0 1 0.411249,0.46375 l -0.437501,7.437499 a 0.43750001,0.43750001 0 1 1 -0.873249,-0.05248 l 0.437501,-7.4375 a 0.43750001,0.43750001 0 0 1 0.462,-0.411249 z m -2.212874,0 a 0.43750001,0.43750001 0 0 1 0.437497,0.437501 v 7.4375 a 0.43750001,0.43750001 0 0 1 -0.874999,0 v -7.4375 A 0.43750001,0.43750001 0 0 1 6.1245021,4.9375 Z"
       id="path2-4"
       style="fill:#792c7d;fill-opacity:1;stroke-width:0.874999" />
  </g>
  <g
     inkscape:label="AddDb"
     inkscape:groupmode="layer"
     id="g67372"
     style="display:none">
    <text
       xml:space="preserve"
       style="font-style:normal;font-weight:normal;font-size:11.2889px;line-height:1;font-family:sans-serif;fill:#000000;fill-opacity:1;stroke:none;stroke-width:0.264583"
       x="19.682657"
       y="11.957729"
       id="text67368"><tspan
         sodipodi:role="line"
         style="font-style:normal;font-variant:normal;font-weight:normal;font-stretch:normal;font-size:11.2889px;font-family:Roboto;-inkscape-font-specification:Roboto;fill:#e2b8e4;fill-opacity:1;stroke-width:0.264583"
         x="19.682657"
         y="11.957729"
         id="tspan67366">Add</tspan></text>
    <g
       id="g839"
       transform="matrix(0.93333333,0,0,0.93333333,-1.8666667,0.06666669)"
       style="fill:#792c7d;fill-opacity:1">
      <path
         d="m 12.5,16 a 3.5,3.5 0 1 0 0,-7 3.5,3.5 0 0 0 0,7 z M 13,11 v 1 h 1 a 0.5,0.5 0 0 1 0,1 h -1 v 1 a 0.5,0.5 0 0 1 -1,0 v -1 h -1 a 0.5,0.5 0 0 1 0,-1 h 1 v -1 a 0.5,0.5 0 0 1 1,0 z"
         id="path2-7"
         style="fill:#792c7d;fill-opacity:1" />
      <path
         d="M 12.096,6.223 A 4.92,4.92 0 0 0 13,5.698 V 7 c 0,0.289 -0.213,0.654 -0.753,1.007 A 4.493,4.493 0 0 1 14,8.257 V 4 C 14,2.993 13.125,2.245 12.096,1.777 11.022,1.289 9.573,1 8,1 6.427,1 4.978,1.289 3.904,1.777 2.875,2.245 2,2.993 2,4 v 9 c 0,1.007 0.875,1.755 1.904,2.223 C 4.978,15.71 6.427,16 8,16 8.536,16 9.058,15.966 9.555,15.903 A 4.525,4.525 0 0 1 8.742,14.976 C 8.5,14.992 8.252,15 8,15 6.536,15 5.234,14.73 4.318,14.313 3.356,13.875 3,13.373 3,13 V 11.698 C 3.271,11.9 3.58,12.076 3.904,12.223 4.978,12.71 6.427,13 8,13 h 0.027 a 4.552,4.552 0 0 1 0,-1 H 8 C 6.536,12 5.234,11.73 4.318,11.313 3.356,10.875 3,10.373 3,10 V 8.698 C 3.271,8.9 3.58,9.076 3.904,9.223 4.978,9.71 6.427,10 8,10 8.262,10 8.52,9.992 8.774,9.976 A 4.525,4.525 0 0 1 9.876,8.844 C 9.298,8.944 8.666,9 8,9 6.536,9 5.234,8.73 4.318,8.313 3.356,7.875 3,7.373 3,7 V 5.698 C 3.271,5.9 3.58,6.076 3.904,6.223 4.978,6.711 6.427,7 8,7 9.573,7 11.022,6.711 12.096,6.223 Z M 3,4 C 3,3.626 3.356,3.125 4.318,2.687 5.234,2.271 6.536,2 8,2 9.464,2 10.766,2.27 11.682,2.687 12.644,3.125 13,3.627 13,4 13,4.374 12.644,4.875 11.682,5.313 10.766,5.729 9.464,6 8,6 6.536,6 5.234,5.73 4.318,5.313 3.356,4.875 3,4.373 3,4 Z"
         id="path4-2"
         style="fill:#792c7d;fill-opacity:1" />
    </g>
  </g>
  <g
     inkscape:label="Web"
     inkscape:groupmode="layer"
     id="g70299"
     style="display:none">
    <text
       xml:space="preserve"
       style="font-style:normal;font-weight:normal;font-size:11.2889px;line-height:1;font-family:sans-serif;fill:#e2b9e4;fill-opacity:1;stroke:none;stroke-width:0.264583"
       x="19.682657"
       y="11.957729"
       id="text70291"><tspan
         sodipodi:role="line"
         style="font-style:normal;font-variant:normal;font-weight:normal;font-stretch:normal;font-size:11.2889px;font-family:Roboto;-inkscape-font-specification:Roboto;fill:#e2b9e4;fill-opacity:1;stroke-width:0.264583"
         x="19.682657"
         y="11.957729"
         id="tspan70289">Web</tspan></text>
    <path
       d="M 0,8 A 7,7 0 1 1 14,8 7,7 0 0 1 0,8 Z M 6.5625,1.942373 C 5.97625,2.120857 5.394375,2.659876 4.911375,3.565498 a 6.97375,6.97375 0 0 0 -0.4095,0.9345 H 6.5625 Z M 3.578751,4.499998 A 8.1086251,8.1086251 0 0 1 4.13875,3.153376 5.8625001,5.8625001 0 0 1 4.661124,2.336998 a 6.1468751,6.1468751 0 0 0 -2.688,2.163 z M 3.069499,7.562499 C 3.095629,6.795123 3.190241,6.05925 3.342499,5.375 H 1.464749 A 6.0882501,6.0882501 0 0 0 0.890751,7.562499 Z M 4.241124,5.375 A 10.9375,10.9375 0 0 0 3.945371,7.562499 H 6.562497 V 5.375 Z m 3.196375,0 v 2.187499 h 2.61625 A 10.933125,10.933125 0 0 0 9.758889,5.375 Z M 3.946251,8.437498 a 10.9375,10.9375 0 0 0 0.29486,2.187503 H 6.562487 V 8.437498 Z m 3.491248,0 v 2.187503 h 2.321377 c 0.163634,-0.669378 0.267742,-1.407 0.295753,-2.187503 z m -2.935624,3.062501 c 0.120741,0.33775 0.258118,0.651001 0.4095,0.934501 0.483,0.905625 1.065751,1.443748 1.651125,1.623124 V 11.499999 Z M 4.661111,13.663 A 5.8590002,5.8590002 0 0 1 4.138737,12.846625 8.1095001,8.1095001 0 0 1 3.578738,11.499999 H 1.973111 a 6.1460001,6.1460001 0 0 0 2.688,2.163001 z M 3.342486,10.625001 a 11.9455,11.9455 0 0 1 -0.273,-2.187503 H 0.890738 c 0.05424,0.77875 0.254612,1.516376 0.573997,2.187503 z M 9.338863,13.663 a 6.1460001,6.1460001 0 0 0 2.688,-2.163001 H 10.421236 A 8.1112503,8.1112503 0 0 1 9.861237,12.846625 5.8520001,5.8520001 0 0 1 9.338863,13.663 Z M 7.437486,11.499999 v 2.557625 c 0.586251,-0.178516 1.168126,-0.717499 1.651126,-1.623124 0.151365,-0.283484 0.288742,-0.596751 0.4095,-0.934501 z m 3.220001,-0.874998 h 1.877751 c 0.319365,-0.671127 0.519748,-1.408753 0.573998,-2.187503 h -2.178749 a 11.94375,11.94375 0 0 1 -0.273,2.187503 z M 13.109236,7.562499 A 6.0891251,6.0891251 0 0 0 12.535251,5.375 h -1.87775 c 0.152258,0.68425 0.246741,1.420123 0.273,2.187499 z M 9.861237,3.153376 c 0.216118,0.405997 0.404251,0.857497 0.559999,1.346622 h 1.605627 a 6.1460001,6.1460001 0 0 0 -2.688,-2.163 c 0.190752,0.248495 0.36575,0.523251 0.522374,0.816378 z M 9.498112,4.499998 A 6.9702501,6.9702501 0 0 0 9.088625,3.565498 C 8.605625,2.659876 8.02375,2.12175 7.437499,1.942373 v 2.557625 z"
       id="path2-40"
       style="fill:#792c7d;fill-opacity:1;stroke-width:0.874999" />
  </g>
  <g
     inkscape:label="kAI"
     inkscape:groupmode="layer"
     id="g893"
     style="display:none">
    <text
       xml:space="preserve"
       style="font-style:normal;font-weight:normal;font-size:11.2889px;line-height:1;font-family:sans-serif;fill:#e2b9e4;fill-opacity:1;stroke:none;stroke-width:0.264583"
       x="19.682657"
       y="11.957729"
       id="text889"><tspan
         sodipodi:role="line"
         style="font-style:normal;font-variant:normal;font-weight:normal;font-stretch:normal;font-size:11.2889px;font-family:Roboto;-inkscape-font-specification:Roboto;fill:#e2b9e4;fill-opacity:1;stroke-width:0.264583"
         x="19.682657"
         y="11.957729"
         id="tspan887">kAI</tspan></text>
    <g
       id="g843"
       transform="matrix(0.875,0,0,0.91306333,0,0.99999998)"
       style="fill:#792c7d;fill-opacity:1">
      <path
         d="m 14,1 a 1,1 0 0 1 1,1 v 8 a 1,1 0 0 1 -1,1 H 11.5 A 2,2 0 0 0 9.9,11.8 L 8,14.333 6.1,11.8 A 2,2 0 0 0 4.5,11 H 2 A 1,1 0 0 1 1,10 V 2 A 1,1 0 0 1 2,1 Z M 2,0 A 2,2 0 0 0 0,2 v 8 a 2,2 0 0 0 2,2 h 2.5 a 1,1 0 0 1 0.8,0.4 l 1.9,2.533 a 1,1 0 0 0 1.6,0 L 10.7,12.4 A 1,1 0 0 1 11.5,12 H 14 a 2,2 0 0 0 2,-2 V 2 A 2,2 0 0 0 14,0 Z"
         id="path2-67"
         style="fill:#792c7d;fill-opacity:1" />
      <path
         d="M 3,3.5 A 0.5,0.5 0 0 1 3.5,3 h 9 a 0.5,0.5 0 0 1 0,1 h -9 A 0.5,0.5 0 0 1 3,3.5 Z M 3,6 A 0.5,0.5 0 0 1 3.5,5.5 h 9 a 0.5,0.5 0 0 1 0,1 h -9 A 0.5,0.5 0 0 1 3,6 Z M 3,8.5 A 0.5,0.5 0 0 1 3.5,8 h 5 a 0.5,0.5 0 0 1 0,1 h -5 A 0.5,0.5 0 0 1 3,8.5 Z"
         id="path4-5"
         style="fill:#792c7d;fill-opacity:1" />
    </g>
  </g>
  <g
     inkscape:label="Search kAI"
     inkscape:groupmode="layer"
     id="g868"
     style="display:inline">
    <text
       xml:space="preserve"
       style="font-style:normal;font-weight:normal;font-size:11.2889px;line-height:1;font-family:sans-serif;fill:#e2b9e4;fill-opacity:1;stroke:none;stroke-width:0.264583"
       x="19.682657"
       y="11.957729"
       id="text860"><tspan
         sodipodi:role="line"
         style="font-style:normal;font-variant:normal;font-weight:normal;font-stretch:normal;font-size:11.2889px;font-family:Roboto;-inkscape-font-specification:Roboto;fill:#e2b9e4;fill-opacity:1;stroke-width:0.264583"
         x="19.682657"
         y="11.957729"
         id="tspan858">kAI</tspan></text>
    <path
       d="m 10.275087,10.050402 a 5.6875287,5.6875287 0 1 0 -1.2223795,1.223256 h -8.76e-4 c 0.02613,0.035 0.05424,0.06825 0.08575,0.100626 l 3.3687685,3.368767 a 0.87518174,0.87518174 0 0 0 1.23813,-1.237256 l -3.368765,-3.368767 a 0.88112946,0.88112946 0 0 0 -0.100635,-0.0875 z m 0.225742,-3.3635171 a 4.8125252,4.8125252 0 1 1 -9.62505048,0 4.8125252,4.8125252 0 0 1 9.62505048,0 z"
       id="path2-3"
       style="fill:#792c7d;fill-opacity:1;stroke-width:0.875003" />
  </g>
</svg>
